# Exported from ProBuilder
# http://www.procore3d.com/probuilder
# 3/12/2018 1:49:27 PM

mtllib ./level-end.mtl
o level-end

g Pipe
v -11.99 -5.34 10.33
v -13.41572 -5.34 7.860585
v -11.99 -5.292476 10.33
v -13.41572 -5.292476 7.860585
v -13.33017 -5.34 7.860585
v -11.94723 -5.34 10.25592
v -13.33017 -5.292476 7.860585
v -11.94723 -5.292476 10.25592
v -9.138565 -5.34 10.33
v -11.99 -5.34 10.33
v -9.138565 -5.292476 10.33
v -11.99 -5.292476 10.33
v -11.94723 -5.34 10.25592
v -9.181337 -5.34 10.25592
v -11.94723 -5.292476 10.25592
v -9.181337 -5.292476 10.25592
v -7.712849 -5.34 7.860585
v -9.138565 -5.34 10.33
v -7.712849 -5.292476 7.860585
v -9.138565 -5.292476 10.33
v -9.181337 -5.34 10.25592
v -7.798392 -5.34 7.860585
v -9.181337 -5.292476 10.25592
v -7.798392 -5.292476 7.860585
v -9.138566 -5.34 5.391171
v -7.712849 -5.34 7.860585
v -9.138566 -5.292476 5.391171
v -7.712849 -5.292476 7.860585
v -7.798392 -5.34 7.860585
v -9.181337 -5.34 5.465253
v -7.798392 -5.292476 7.860585
v -9.181337 -5.292476 5.465253
v -11.99 -5.34 5.391171
v -9.138566 -5.34 5.391171
v -11.99 -5.292476 5.391171
v -9.138566 -5.292476 5.391171
v -9.181337 -5.34 5.465253
v -11.94723 -5.34 5.465253
v -9.181337 -5.292476 5.465253
v -11.94723 -5.292476 5.465253
v -13.41572 -5.34 7.860585
v -11.99 -5.34 5.391171
v -13.41572 -5.292476 7.860585
v -11.99 -5.292476 5.391171
v -11.94723 -5.34 5.465253
v -13.33017 -5.34 7.860585
v -11.94723 -5.292476 5.465253
v -13.33017 -5.292476 7.860585
v -11.99 -5.292476 10.33
v -13.41572 -5.292476 7.860585
v -11.99 -5.244952 10.33
v -13.41572 -5.244952 7.860585
v -13.33017 -5.292476 7.860585
v -11.94723 -5.292476 10.25592
v -13.33017 -5.244952 7.860585
v -11.94723 -5.244952 10.25592
v -9.138565 -5.292476 10.33
v -11.99 -5.292476 10.33
v -9.138565 -5.244952 10.33
v -11.99 -5.244952 10.33
v -11.94723 -5.292476 10.25592
v -9.181337 -5.292476 10.25592
v -11.94723 -5.244952 10.25592
v -9.181337 -5.244952 10.25592
v -7.712849 -5.292476 7.860585
v -9.138565 -5.292476 10.33
v -7.712849 -5.244952 7.860585
v -9.138565 -5.244952 10.33
v -9.181337 -5.292476 10.25592
v -7.798392 -5.292476 7.860585
v -9.181337 -5.244952 10.25592
v -7.798392 -5.244952 7.860585
v -9.138566 -5.292476 5.391171
v -7.712849 -5.292476 7.860585
v -9.138566 -5.244952 5.391171
v -7.712849 -5.244952 7.860585
v -7.798392 -5.292476 7.860585
v -9.181337 -5.292476 5.465253
v -7.798392 -5.244952 7.860585
v -9.181337 -5.244952 5.465253
v -11.99 -5.292476 5.391171
v -9.138566 -5.292476 5.391171
v -11.99 -5.244952 5.391171
v -9.138566 -5.244952 5.391171
v -9.181337 -5.292476 5.465253
v -11.94723 -5.292476 5.465253
v -9.181337 -5.244952 5.465253
v -11.94723 -5.244952 5.465253
v -13.41572 -5.292476 7.860585
v -11.99 -5.292476 5.391171
v -13.41572 -5.244952 7.860585
v -11.99 -5.244952 5.391171
v -11.94723 -5.292476 5.465253
v -13.33017 -5.292476 7.860585
v -11.94723 -5.244952 5.465253
v -13.33017 -5.244952 7.860585
v -13.41572 -5.34 7.860585
v -11.99 -5.34 10.33
v -13.33017 -5.34 7.860585
v -11.94723 -5.34 10.25592
v -11.99 -5.244952 10.33
v -13.41572 -5.244952 7.860585
v -11.94723 -5.244952 10.25592
v -13.33017 -5.244952 7.860585
v -11.99 -5.34 10.33
v -9.138565 -5.34 10.33
v -11.94723 -5.34 10.25592
v -9.181337 -5.34 10.25592
v -9.138565 -5.244952 10.33
v -11.99 -5.244952 10.33
v -9.181337 -5.244952 10.25592
v -11.94723 -5.244952 10.25592
v -9.138565 -5.34 10.33
v -7.712849 -5.34 7.860585
v -9.181337 -5.34 10.25592
v -7.798392 -5.34 7.860585
v -7.712849 -5.244952 7.860585
v -9.138565 -5.244952 10.33
v -7.798392 -5.244952 7.860585
v -9.181337 -5.244952 10.25592
v -7.712849 -5.34 7.860585
v -9.138566 -5.34 5.391171
v -7.798392 -5.34 7.860585
v -9.181337 -5.34 5.465253
v -9.138566 -5.244952 5.391171
v -7.712849 -5.244952 7.860585
v -9.181337 -5.244952 5.465253
v -7.798392 -5.244952 7.860585
v -9.138566 -5.34 5.391171
v -11.99 -5.34 5.391171
v -9.181337 -5.34 5.465253
v -11.94723 -5.34 5.465253
v -11.99 -5.244952 5.391171
v -9.138566 -5.244952 5.391171
v -11.94723 -5.244952 5.465253
v -9.181337 -5.244952 5.465253
v -11.99 -5.34 5.391171
v -13.41572 -5.34 7.860585
v -11.94723 -5.34 5.465253
v -13.33017 -5.34 7.860585
v -13.41572 -5.244952 7.860585
v -11.99 -5.244952 5.391171
v -13.33017 -5.244952 7.860585
v -11.94723 -5.244952 5.465253

vn -0.8231381 0 0.475239
vn -0.8231381 0 0.475239
vn -0.8231381 0 0.475239
vn -0.8231381 0 0.475239
vn 0.8231381 0 -0.475239
vn 0.8231381 0 -0.475239
vn 0.8231381 0 -0.475239
vn 0.8231381 0 -0.475239
vn 7.553722E-08 0 0.9504781
vn 7.553722E-08 0 0.9504781
vn 7.553722E-08 0 0.9504781
vn 7.553722E-08 0 0.9504781
vn -7.787342E-08 0 -0.9504781
vn -7.787342E-08 0 -0.9504781
vn -7.787342E-08 0 -0.9504781
vn -7.787342E-08 0 -0.9504781
vn 0.8231382 0 0.475239
vn 0.8231382 0 0.475239
vn 0.8231382 0 0.475239
vn 0.8231382 0 0.475239
vn -0.8231382 0 -0.475239
vn -0.8231382 0 -0.475239
vn -0.8231382 0 -0.475239
vn -0.8231382 0 -0.475239
vn 0.8231381 0 -0.4752392
vn 0.8231381 0 -0.4752392
vn 0.8231381 0 -0.4752392
vn 0.8231381 0 -0.4752392
vn -0.8231381 0 0.475239
vn -0.8231381 0 0.475239
vn -0.8231381 0 0.475239
vn -0.8231381 0 0.475239
vn 0 0 -0.9504781
vn 0 0 -0.9504781
vn 0 0 -0.9504781
vn 0 0 -0.9504781
vn 0 0 0.9504781
vn 0 0 0.9504781
vn 0 0 0.9504781
vn 0 0 0.9504781
vn -0.8231381 0 -0.475239
vn -0.8231381 0 -0.475239
vn -0.8231381 0 -0.475239
vn -0.8231381 0 -0.475239
vn 0.8231381 0 0.475239
vn 0.8231381 0 0.475239
vn 0.8231381 0 0.475239
vn 0.8231381 0 0.475239
vn -0.8231381 0 0.475239
vn -0.8231381 0 0.475239
vn -0.8231381 0 0.475239
vn -0.8231381 0 0.475239
vn 0.8231381 0 -0.475239
vn 0.8231381 0 -0.475239
vn 0.8231381 0 -0.475239
vn 0.8231381 0 -0.475239
vn 7.553722E-08 0 0.9504781
vn 7.553722E-08 0 0.9504781
vn 7.553722E-08 0 0.9504781
vn 7.553722E-08 0 0.9504781
vn -7.787342E-08 0 -0.9504781
vn -7.787342E-08 0 -0.9504781
vn -7.787342E-08 0 -0.9504781
vn -7.787342E-08 0 -0.9504781
vn 0.8231382 0 0.475239
vn 0.8231382 0 0.475239
vn 0.8231382 0 0.475239
vn 0.8231382 0 0.475239
vn -0.8231382 0 -0.475239
vn -0.8231382 0 -0.475239
vn -0.8231382 0 -0.475239
vn -0.8231382 0 -0.475239
vn 0.8231381 0 -0.4752392
vn 0.8231381 0 -0.4752392
vn 0.8231381 0 -0.4752392
vn 0.8231381 0 -0.4752392
vn -0.8231381 0 0.475239
vn -0.8231381 0 0.475239
vn -0.8231381 0 0.475239
vn -0.8231381 0 0.475239
vn 0 0 -0.9504781
vn 0 0 -0.9504781
vn 0 0 -0.9504781
vn 0 0 -0.9504781
vn 0 0 0.9504781
vn 0 0 0.9504781
vn 0 0 0.9504781
vn 0 0 0.9504781
vn -0.8231381 0 -0.475239
vn -0.8231381 0 -0.475239
vn -0.8231381 0 -0.475239
vn -0.8231381 0 -0.475239
vn 0.8231381 0 0.475239
vn 0.8231381 0 0.475239
vn 0.8231381 0 0.475239
vn 0.8231381 0 0.475239
vn 0 -0.950478 0
vn 0 -0.950478 0
vn 0 -0.950478 0
vn 0 -0.950478 0
vn 0 0.950478 0
vn 0 0.950478 0
vn 0 0.950478 0
vn 0 0.950478 0
vn 0 -0.950478 0
vn 0 -0.950478 0
vn 0 -0.950478 0
vn 0 -0.950478 0
vn 0 0.950478 0
vn 0 0.950478 0
vn 0 0.950478 0
vn 0 0.950478 0
vn 0 -0.950478 0
vn 0 -0.950478 0
vn 0 -0.950478 0
vn 0 -0.950478 0
vn 0 0.950478 0
vn 0 0.950478 0
vn 0 0.950478 0
vn 0 0.950478 0
vn 0 -0.950478 0
vn 0 -0.950478 0
vn 0 -0.950478 0
vn 0 -0.950478 0
vn 0 0.950478 0
vn 0 0.950478 0
vn 0 0.950478 0
vn 0 0.950478 0
vn 0 -0.950478 0
vn 0 -0.950478 0
vn 0 -0.950478 0
vn 0 -0.950478 0
vn 0 0.950478 0
vn 0 0.950478 0
vn 0 0.950478 0
vn 0 0.950478 0
vn 0 -0.950478 0
vn 0 -0.950478 0
vn 0 -0.950478 0
vn 0 -0.950478 0
vn 0 0.950478 0
vn 0 0.950478 0
vn 0 0.950478 0
vn 0 0.950478 0

vt 0 0
vt -3 0
vt 0 0.05
vt -3 0.05
vt 2.955 0
vt 0.04499989 0
vt 2.955 0.05
vt 0.04499989 0.05
vt 3 0
vt 0 0
vt 3 0.05
vt 0 0.05
vt -0.04499996 0
vt -2.955 0
vt -0.04499996 0.05
vt -2.955 0.05
vt 4.5 0
vt 1.5 0
vt 4.5 0.05
vt 1.5 0.05
vt -1.545 0
vt -4.455 0
vt -1.545 0.05
vt -4.455 0.05
vt 3 0
vt -4.107323E-07 0
vt 3 0.05
vt -4.107323E-07 0.05
vt -0.04500036 0
vt -2.955001 0
vt -0.04500036 0.05
vt -2.955001 0.05
vt -1.192093E-07 0
vt -3 0
vt -1.192093E-07 0.05
vt -3 0.05
vt 2.955 0
vt 0.04500008 0
vt 2.955 0.05
vt 0.04500008 0.05
vt -1.5 0
vt -4.5 0
vt -1.5 0.05
vt -4.5 0.05
vt 4.455 0
vt 1.545 0
vt 4.455 0.05
vt 1.545 0.05
vt 0 0.05
vt -3 0.05
vt 0 0.1
vt -3 0.1
vt 2.955 0.05
vt 0.04499989 0.05
vt 2.955 0.1
vt 0.04499989 0.1
vt 3 0.05
vt 0 0.05
vt 3 0.1
vt 0 0.1
vt -0.04499996 0.05
vt -2.955 0.05
vt -0.04499996 0.1
vt -2.955 0.1
vt 4.5 0.05
vt 1.5 0.05
vt 4.5 0.1
vt 1.5 0.1
vt -1.545 0.05
vt -4.455 0.05
vt -1.545 0.1
vt -4.455 0.1
vt 3 0.05
vt -4.107323E-07 0.05
vt 3 0.1
vt -4.107323E-07 0.1
vt -0.04500036 0.05
vt -2.955001 0.05
vt -0.04500036 0.1
vt -2.955001 0.1
vt -1.192093E-07 0.05
vt -3 0.05
vt -1.192093E-07 0.1
vt -3 0.1
vt 2.955 0.05
vt 0.04500008 0.05
vt 2.955 0.1
vt 0.04500008 0.1
vt -1.5 0.05
vt -4.5 0.05
vt -1.5 0.1
vt -4.5 0.1
vt 4.455 0.05
vt 1.545 0.05
vt 4.455 0.1
vt 1.545 0.1
vt -1.5 -2.598076
vt 0 0
vt -1.41 -2.598076
vt 0.04499996 -0.07794213
vt 0 0
vt 1.5 -2.598076
vt -0.04499996 -0.07794213
vt 1.41 -2.598076
vt 0 0
vt 3 -2.384186E-07
vt 0.04499996 -0.07794213
vt 2.955 -0.07794237
vt -3 -2.384186E-07
vt 0 0
vt -2.955 -0.07794237
vt -0.04499996 -0.07794213
vt 3 -2.384186E-07
vt 4.5 -2.598077
vt 2.955 -0.07794237
vt 4.41 -2.598077
vt -4.5 -2.598077
vt -3 -2.384186E-07
vt -4.41 -2.598077
vt -2.955 -0.07794237
vt 4.5 -2.598077
vt 3 -5.196153
vt 4.41 -2.598077
vt 2.955 -5.118211
vt -3 -5.196153
vt -4.5 -2.598077
vt -2.955 -5.118211
vt -4.41 -2.598077
vt 3 -5.196153
vt 1.192093E-07 -5.196153
vt 2.955 -5.118211
vt 0.04500008 -5.118211
vt -1.192093E-07 -5.196153
vt -3 -5.196153
vt -0.04500008 -5.118211
vt -2.955 -5.118211
vt 1.192093E-07 -5.196153
vt -1.5 -2.598076
vt 0.04500008 -5.118211
vt -1.41 -2.598076
vt 1.5 -2.598076
vt -1.192093E-07 -5.196153
vt 1.41 -2.598076
vt -0.04500008 -5.118211

g Pipe
usemtl Default_Prototype
f 3/3/3 4/4/4 2/2/2 1/1/1
f 7/7/7 8/8/8 6/6/6 5/5/5
f 11/11/11 12/12/12 10/10/10 9/9/9
f 15/15/15 16/16/16 14/14/14 13/13/13
f 19/19/19 20/20/20 18/18/18 17/17/17
f 23/23/23 24/24/24 22/22/22 21/21/21
f 27/27/27 28/28/28 26/26/26 25/25/25
f 31/31/31 32/32/32 30/30/30 29/29/29
f 35/35/35 36/36/36 34/34/34 33/33/33
f 39/39/39 40/40/40 38/38/38 37/37/37
f 43/43/43 44/44/44 42/42/42 41/41/41
f 47/47/47 48/48/48 46/46/46 45/45/45
f 51/51/51 52/52/52 50/50/50 49/49/49
f 55/55/55 56/56/56 54/54/54 53/53/53
f 59/59/59 60/60/60 58/58/58 57/57/57
f 63/63/63 64/64/64 62/62/62 61/61/61
f 67/67/67 68/68/68 66/66/66 65/65/65
f 71/71/71 72/72/72 70/70/70 69/69/69
f 75/75/75 76/76/76 74/74/74 73/73/73
f 79/79/79 80/80/80 78/78/78 77/77/77
f 83/83/83 84/84/84 82/82/82 81/81/81
f 87/87/87 88/88/88 86/86/86 85/85/85
f 91/91/91 92/92/92 90/90/90 89/89/89
f 95/95/95 96/96/96 94/94/94 93/93/93
f 99/99/99 100/100/100 98/98/98 97/97/97
f 103/103/103 104/104/104 102/102/102 101/101/101
f 107/107/107 108/108/108 106/106/106 105/105/105
f 111/111/111 112/112/112 110/110/110 109/109/109
f 115/115/115 116/116/116 114/114/114 113/113/113
f 119/119/119 120/120/120 118/118/118 117/117/117
f 123/123/123 124/124/124 122/122/122 121/121/121
f 127/127/127 128/128/128 126/126/126 125/125/125
f 131/131/131 132/132/132 130/130/130 129/129/129
f 135/135/135 136/136/136 134/134/134 133/133/133
f 139/139/139 140/140/140 138/138/138 137/137/137
f 143/143/143 144/144/144 142/142/142 141/141/141

